<?xml version="1.0" encoding="UTF-8" standalone="no"?>
<svg
   xmlns:dc="http://purl.org/dc/elements/1.1/"
   xmlns:cc="http://creativecommons.org/ns#"
   xmlns:rdf="http://www.w3.org/1999/02/22-rdf-syntax-ns#"
   xmlns:svg="http://www.w3.org/2000/svg"
   xmlns="http://www.w3.org/2000/svg"
   xmlns:sodipodi="http://sodipodi.sourceforge.net/DTD/sodipodi-0.dtd"
   xmlns:inkscape="http://www.inkscape.org/namespaces/inkscape"
   inkscape:version="1.0 (4035a4fb49, 2020-05-01)"
   sodipodi:docname="language_icon.svg"
   id="svg12"
   width="150"
   viewBox="0 0 150 150"
   version="1.1"
   height="150"
   inkscape:export-filename="D:\LocalRepos\when\app\Assets\Images\language.png"
   inkscape:export-xdpi="96"
   inkscape:export-ydpi="96">
  <metadata
     id="metadata16">
    <rdf:RDF>
      <cc:Work
         rdf:about="">
        <dc:format>image/svg+xml</dc:format>
        <dc:type
           rdf:resource="http://purl.org/dc/dcmitype/StillImage" />
        <dc:title />
      </cc:Work>
    </rdf:RDF>
  </metadata>
  <sodipodi:namedview
     inkscape:pagecheckerboard="true"
     inkscape:current-layer="svg12"
     inkscape:window-maximized="1"
     inkscape:window-y="32"
     inkscape:window-x="1912"
     inkscape:cy="478.46703"
     inkscape:cx="185.19882"
     inkscape:zoom="0.40078125"
     showgrid="false"
     id="namedview14"
     inkscape:window-height="1377"
     inkscape:window-width="2560"
     inkscape:pageshadow="2"
     inkscape:pageopacity="0"
     guidetolerance="10"
     gridtolerance="10"
     objecttolerance="10"
     borderopacity="1"
     bordercolor="#666666"
     pagecolor="#ffffff"
     inkscape:document-rotation="0" />
  <desc
     id="desc4" />
  <defs
     id="defs6" />
  <g
     inkscape:export-ydpi="96"
     inkscape:export-xdpi="96"
     inkscape:export-filename="D:\LocalRepos\when\app\Assets\Images\language.png"
     style="fill:#ffffff"
     transform="scale(7.5)"
     stroke-width="1"
     stroke="none"
     id="Page-1"
     fill-rule="evenodd"
     fill="none">
    <g
       style="fill:#ffffff"
       transform="translate(-296,-296)"
       id="Core"
       fill="#000000">
      <g
         style="fill:#ffffff"
         transform="translate(296,296)"
         id="language">
        <path
           style="fill:#ffffff"
           id="Shape"
           d="M 10,0 C 4.5,0 0,4.5 0,10 0,15.5 4.5,20 10,20 15.5,20 20,15.5 20,10 20,4.5 15.5,0 10,0 Z m 6.9,6 H 14 C 13.7,4.7 13.2,3.6 12.6,2.4 14.4,3.1 16,4.3 16.9,6 Z M 10,2 c 0.8,1.2 1.5,2.5 1.9,4 H 8.1 C 8.5,4.6 9.2,3.2 10,2 Z M 2.3,12 C 2.1,11.4 2,10.7 2,10 2,9.3 2.1,8.6 2.3,8 h 3.4 c -0.1,0.7 -0.1,1.3 -0.1,2 0,0.7 0.1,1.3 0.1,2 z m 0.8,2 H 6 c 0.3,1.3 0.8,2.4 1.4,3.6 C 5.6,16.9 4,15.7 3.1,14 Z M 6,6 H 3.1 C 4.1,4.3 5.6,3.1 7.4,2.4 6.8,3.6 6.3,4.7 6,6 Z m 4,12 C 9.2,16.8 8.5,15.5 8.1,14 h 3.8 c -0.4,1.4 -1.1,2.8 -1.9,4 z m 2.3,-6 H 7.7 C 7.6,11.3 7.5,10.7 7.5,10 7.5,9.3 7.6,8.7 7.7,8 h 4.7 c 0.1,0.7 0.2,1.3 0.2,2 0,0.7 -0.2,1.3 -0.3,2 z m 0.3,5.6 C 13.2,16.5 13.7,15.3 14,14 h 2.9 c -0.9,1.7 -2.5,2.9 -4.3,3.6 z M 14.4,12 c 0.1,-0.7 0.1,-1.3 0.1,-2 0,-0.7 -0.1,-1.3 -0.1,-2 h 3.4 c 0.2,0.6 0.3,1.3 0.3,2 0,0.7 -0.1,1.4 -0.3,2 z" />
      </g>
    </g>
  </g>
</svg>
