<?xml version="1.0" encoding="UTF-8" standalone="no"?>
<svg
   xmlns:dc="http://purl.org/dc/elements/1.1/"
   xmlns:cc="http://creativecommons.org/ns#"
   xmlns:rdf="http://www.w3.org/1999/02/22-rdf-syntax-ns#"
   xmlns:svg="http://www.w3.org/2000/svg"
   xmlns="http://www.w3.org/2000/svg"
   xmlns:sodipodi="http://sodipodi.sourceforge.net/DTD/sodipodi-0.dtd"
   xmlns:inkscape="http://www.inkscape.org/namespaces/inkscape"
   width="1189mm"
   height="841mm"
   viewBox="0 0 4493.8583 3178.5827"
   version="1.1"
   id="svg8"
   inkscape:version="1.0 (4035a4fb49, 2020-05-01)"
   sodipodi:docname="themes.svg">
  <defs
     id="defs2" />
  <sodipodi:namedview
     id="base"
     pagecolor="#ffffff"
     bordercolor="#ff6666"
     borderopacity="1"
     inkscape:pageopacity="0.0"
     inkscape:pageshadow="2"
     inkscape:zoom="0.24748737"
     inkscape:cx="2002.7009"
     inkscape:cy="1587.3727"
     inkscape:document-units="px"
     inkscape:current-layer="layer1"
     showgrid="false"
     inkscape:pagecheckerboard="true"
     inkscape:showpageshadow="false"
     inkscape:window-width="2560"
     inkscape:window-height="1377"
     inkscape:window-x="1912"
     inkscape:window-y="32"
     inkscape:window-maximized="1"
     inkscape:document-rotation="0"
     units="mm"
     inkscape:snap-page="true" />
  <metadata
     id="metadata5">
    <rdf:RDF>
      <cc:Work
         rdf:about="">
        <dc:format>image/svg+xml</dc:format>
        <dc:type
           rdf:resource="http://purl.org/dc/dcmitype/StillImage" />
        <dc:title />
      </cc:Work>
    </rdf:RDF>
  </metadata>
  <g
     inkscape:label="Layer 1"
     inkscape:groupmode="layer"
     id="layer1"
     transform="translate(0,544)">
    <rect
       style="fill:#1a1a1a;fill-opacity:1;stroke-width:42.2719;paint-order:markers stroke fill;stop-color:#000000"
       id="rect830"
       width="4493.8584"
       height="3178.5828"
       x="0"
       y="-544" />
    <path
       d="M 230.00007,-464 C 147.50007,-464 80,-396.5 80,-314 c 0,82.5 67.50007,150 150.00007,150 82.4999,0 149.9999,-67.5 149.9999,-150 0,-82.5 -67.5,-150 -149.9999,-150 z m 103.4999,90 h -43.5 c -4.5,-19.5 -12,-36 -21,-54 27,10.5 51,28.5 64.5,54 z m -103.4999,-60 c 11.9998,18 22.4999,37.5 28.4999,60 h -56.9999 c 6,-21 16.5,-42 28.5,-60 z m -115.5,150 c -3.0001,-9 -4.5001,-19.5 -4.5001,-30 0,-10.5 1.5,-21 4.5001,-30 h 51 c -1.5,10.5 -1.5,19.5 -1.5,30 0,10.5 1.5,19.5 1.5,30 z m 12,30 h 43.5 c 4.5,19.5 12,36 21,54 -27,-10.5 -51,-28.5 -64.5,-54 z m 43.5,-120 h -43.5 c 15,-25.5 37.5,-43.5 64.5,-54 -9,18 -16.5,34.5 -21,54 z m 60,180 c -12,-18 -22.5,-37.5 -28.5,-60 h 56.9999 c -6,21 -16.5001,42 -28.4999,60 z m 34.4999,-90 h -68.9999 c -1.5,-10.5 -3,-19.5 -3,-30 0,-10.5 1.5,-19.5 3,-30 h 70.4999 c 1.5,10.5 3,19.5 3,30 0,10.5 -3,19.5 -4.5,30 z m 4.5,84 c 9,-16.5 16.5,-34.5 21,-54 h 43.5 c -13.5,25.5 -37.5,43.5 -64.5,54 z m 27,-84 c 1.5,-10.5 1.5,-19.5 1.5,-30 0,-10.5 -1.5,-19.5 -1.5,-30 h 51 c 3,9 4.5,19.5 4.5,30 0,10.5 -1.5,21 -4.5,30 z"
       id="Shape"
       style="fill:#ffffff;fill-opacity:1;fill-rule:evenodd;stroke:none;stroke-width:15" />
    <g
       id="g838"
       transform="matrix(0.29995388,0,0,0.29997391,4083.8648,-493.9713)"
       style="fill:#ffffff;fill-opacity:1">
      <path
         id="path834"
         d="m 1068.1,131.95 c -18.887,-19.066 -44.188,-30.43 -70.984,-31.879 -26.797,-1.4492 -53.18,7.1133 -74.016,24.031 l -323.15,254.95 c -1.5234,1.2148 -2.9766,2.5156 -4.3516,3.8984 -27.164,27.324 -43.199,63.766 -45,102.25 -4.75,-0.35156 -9.3516,-1.3984 -14.148,-1.3984 -25.309,-0.0234 -50.363,5.0781 -73.652,14.992 -23.285,9.918 -44.324,24.445 -61.848,42.707 -57.852,59.699 -152.9,254 -66,343.5 7.3438,7.5195 16.875,12.535 27.234,14.332 10.355,1.793 21.02,0.27734 30.465,-4.332 37.289,-17.355 78.363,-24.996 119.4,-22.199 29.238,3.3086 58.848,-0.0391 86.609,-9.7969 27.762,-9.7617 52.953,-25.676 73.688,-46.555 21.137,-22.07 36.867,-48.742 45.949,-77.918 9.0859,-29.176 11.277,-60.062 6.4023,-90.23 34.961,-3.7422 67.602,-19.277 92.551,-44.051 1.2852,-1.3438 2.4844,-2.7617 3.5977,-4.25 l 254.5,-322.1 c 17.211,-20.848 26.008,-47.379 24.668,-74.379 -1.3438,-27 -12.727,-52.527 -31.918,-71.57 z m -467.75,615 c -23.512,22.582 -56.559,32.285 -88.547,26 -37.941,-1.4219 -75.883,2.8594 -112.55,12.699 6.6953,-64.164 32.352,-124.88 73.699,-174.4 16.621,-17.406 39.633,-27.266 63.699,-27.301 24.055,0.0352 47.047,9.8984 63.652,27.301 17.445,18.238 27.188,42.5 27.195,67.738 0.008,25.242 -9.7148,49.512 -27.148,67.762 z M 997.45,215 l -253,320 c -10.867,9.5273 -24.914,14.637 -39.367,14.312 -14.449,-0.32422 -28.254,-6.0547 -38.684,-16.062 -10.168,-10.32 -15.988,-24.148 -16.258,-38.637 -0.26953,-14.484 5.0312,-28.52 14.809,-39.215 l 320.65,-253.4 c 3.4805,-2.8789 8.5859,-2.6211 11.75,0.60156 3.332,3.4453 3.375,8.8984 0.10156,12.398 z"
         style="fill:#ffffff;fill-opacity:1" />
      <path
         id="path836"
         d="m 950,550 c -13.262,0 -25.98,5.2695 -35.355,14.645 C 905.27,574.0205 900,586.739 900,600 v 250 c 0,39.781 -15.805,77.938 -43.934,106.07 -28.129,28.132 -66.285,43.934 -106.07,43.934 h -400 c -39.781,0 -77.938,-15.805 -106.07,-43.934 C 215.794,927.941 199.992,889.785 199.992,850 V 450 c 0,-39.781 15.805,-77.938 43.934,-106.07 28.129,-28.132 66.285,-43.934 106.07,-43.934 h 250 c 17.863,0 34.371,-9.5312 43.301,-25 8.9336,-15.469 8.9336,-34.531 0,-50 -8.9297,-15.469 -25.438,-25 -43.301,-25 h -250 c -66.281,0.0781 -129.82,26.445 -176.69,73.312 -46.87,46.867 -73.234,110.41 -73.312,176.69 v 400 c 0.07813,66.281 26.445,129.82 73.312,176.69 46.867,46.87 110.41,73.234 176.69,73.312 h 400 c 66.281,-0.078 129.82,-26.445 176.69,-73.312 46.87,-46.867 73.234,-110.41 73.312,-176.69 v -250 c 0,-13.262 -5.2695,-25.98 -14.645,-35.355 -9.3755,-9.375 -22.094,-14.645 -35.355,-14.645 z"
         style="fill:#ffffff;fill-opacity:1" />
    </g>
    <text
       xml:space="preserve"
       style="font-size:403.858px;line-height:1.25;font-family:'Alien Encounters';-inkscape-font-specification:'Alien Encounters';text-align:center;text-anchor:middle;fill:#ffffff;fill-opacity:1;stroke-width:10.0965"
       x="2247.4221"
       y="329.17566"
       id="text861"><tspan
         sodipodi:role="line"
         id="tspan859"
         x="2247.4221"
         y="329.17566"
         style="font-style:normal;font-variant:normal;font-weight:bold;font-stretch:normal;font-family:Arial;-inkscape-font-specification:'Arial Bold';fill:#ffffff;fill-opacity:1;stroke-width:10.0965">Tuesday 08</tspan></text>
    <text
       id="text865"
       y="1703.7252"
       x="2262.4304"
       style="font-size:1434.38px;line-height:1.25;font-family:'Alien Encounters';-inkscape-font-specification:'Alien Encounters';text-align:center;text-anchor:middle;fill:#ffffff;fill-opacity:1;stroke-width:35.8595"
       xml:space="preserve"><tspan
         style="font-style:normal;font-variant:normal;font-weight:bold;font-stretch:normal;font-family:Arial;-inkscape-font-specification:'Arial Bold';fill:#ffffff;fill-opacity:1;stroke-width:35.8595"
         y="1703.7252"
         x="2262.4304"
         id="tspan863"
         sodipodi:role="line">18:54</tspan></text>
    <text
       xml:space="preserve"
       style="font-size:428.725px;line-height:1.25;font-family:'Alien Encounters';-inkscape-font-specification:'Alien Encounters';text-align:center;text-anchor:middle;stroke-width:10.7181"
       x="2245.2544"
       y="-671.81274"
       id="text873"><tspan
         sodipodi:role="line"
         id="tspan871"
         x="2245.2544"
         y="-671.81274"
         style="font-style:normal;font-variant:normal;font-weight:normal;font-stretch:normal;font-family:Arial;-inkscape-font-specification:Arial;stroke-width:10.7181">Contrast</tspan></text>
    <rect
       y="-544"
       x="-6000"
       height="3178.5828"
       width="4493.8584"
       id="rect911"
       style="fill:#efa0e4;fill-opacity:1;stroke-width:42.2719;paint-order:markers stroke fill;stop-color:#000000" />
    <g
       style="fill:#63285a;fill-opacity:1"
       id="g933"
       transform="translate(-6000.0001)">
      <path
         d="M 230.00007,-464 C 147.50007,-464 80,-396.5 80,-314 c 0,82.5 67.50007,150 150.00007,150 82.4999,0 149.9999,-67.5 149.9999,-150 0,-82.5 -67.5,-150 -149.9999,-150 z m 103.4999,90 h -43.5 c -4.5,-19.5 -12,-36 -21,-54 27,10.5 51,28.5 64.5,54 z m -103.4999,-60 c 11.9998,18 22.4999,37.5 28.4999,60 h -56.9999 c 6,-21 16.5,-42 28.5,-60 z m -115.5,150 c -3.0001,-9 -4.5001,-19.5 -4.5001,-30 0,-10.5 1.5,-21 4.5001,-30 h 51 c -1.5,10.5 -1.5,19.5 -1.5,30 0,10.5 1.5,19.5 1.5,30 z m 12,30 h 43.5 c 4.5,19.5 12,36 21,54 -27,-10.5 -51,-28.5 -64.5,-54 z m 43.5,-120 h -43.5 c 15,-25.5 37.5,-43.5 64.5,-54 -9,18 -16.5,34.5 -21,54 z m 60,180 c -12,-18 -22.5,-37.5 -28.5,-60 h 56.9999 c -6,21 -16.5001,42 -28.4999,60 z m 34.4999,-90 h -68.9999 c -1.5,-10.5 -3,-19.5 -3,-30 0,-10.5 1.5,-19.5 3,-30 h 70.4999 c 1.5,10.5 3,19.5 3,30 0,10.5 -3,19.5 -4.5,30 z m 4.5,84 c 9,-16.5 16.5,-34.5 21,-54 h 43.5 c -13.5,25.5 -37.5,43.5 -64.5,54 z m 27,-84 c 1.5,-10.5 1.5,-19.5 1.5,-30 0,-10.5 -1.5,-19.5 -1.5,-30 h 51 c 3,9 4.5,19.5 4.5,30 0,10.5 -1.5,21 -4.5,30 z"
         id="path913"
         style="fill:#63285a;fill-opacity:1;fill-rule:evenodd;stroke:none;stroke-width:15" />
      <g
         id="g919"
         transform="matrix(0.29995388,0,0,0.29997391,4083.8648,-493.9713)"
         style="fill:#63285a;fill-opacity:1">
        <path
           id="path915"
           d="m 1068.1,131.95 c -18.887,-19.066 -44.188,-30.43 -70.984,-31.879 -26.797,-1.4492 -53.18,7.1133 -74.016,24.031 l -323.15,254.95 c -1.5234,1.2148 -2.9766,2.5156 -4.3516,3.8984 -27.164,27.324 -43.199,63.766 -45,102.25 -4.75,-0.35156 -9.3516,-1.3984 -14.148,-1.3984 -25.309,-0.0234 -50.363,5.0781 -73.652,14.992 -23.285,9.918 -44.324,24.445 -61.848,42.707 -57.852,59.699 -152.9,254 -66,343.5 7.3438,7.5195 16.875,12.535 27.234,14.332 10.355,1.793 21.02,0.27734 30.465,-4.332 37.289,-17.355 78.363,-24.996 119.4,-22.199 29.238,3.3086 58.848,-0.0391 86.609,-9.7969 27.762,-9.7617 52.953,-25.676 73.688,-46.555 21.137,-22.07 36.867,-48.742 45.949,-77.918 9.0859,-29.176 11.277,-60.062 6.4023,-90.23 34.961,-3.7422 67.602,-19.277 92.551,-44.051 1.2852,-1.3438 2.4844,-2.7617 3.5977,-4.25 l 254.5,-322.1 c 17.211,-20.848 26.008,-47.379 24.668,-74.379 -1.3438,-27 -12.727,-52.527 -31.918,-71.57 z m -467.75,615 c -23.512,22.582 -56.559,32.285 -88.547,26 -37.941,-1.4219 -75.883,2.8594 -112.55,12.699 6.6953,-64.164 32.352,-124.88 73.699,-174.4 16.621,-17.406 39.633,-27.266 63.699,-27.301 24.055,0.0352 47.047,9.8984 63.652,27.301 17.445,18.238 27.188,42.5 27.195,67.738 0.008,25.242 -9.7148,49.512 -27.148,67.762 z M 997.45,215 l -253,320 c -10.867,9.5273 -24.914,14.637 -39.367,14.312 -14.449,-0.32422 -28.254,-6.0547 -38.684,-16.062 -10.168,-10.32 -15.988,-24.148 -16.258,-38.637 -0.26953,-14.484 5.0312,-28.52 14.809,-39.215 l 320.65,-253.4 c 3.4805,-2.8789 8.5859,-2.6211 11.75,0.60156 3.332,3.4453 3.375,8.8984 0.10156,12.398 z"
           style="fill:#63285a;fill-opacity:1" />
        <path
           id="path917"
           d="m 950,550 c -13.262,0 -25.98,5.2695 -35.355,14.645 C 905.27,574.0205 900,586.739 900,600 v 250 c 0,39.781 -15.805,77.938 -43.934,106.07 -28.129,28.132 -66.285,43.934 -106.07,43.934 h -400 c -39.781,0 -77.938,-15.805 -106.07,-43.934 C 215.794,927.941 199.992,889.785 199.992,850 V 450 c 0,-39.781 15.805,-77.938 43.934,-106.07 28.129,-28.132 66.285,-43.934 106.07,-43.934 h 250 c 17.863,0 34.371,-9.5312 43.301,-25 8.9336,-15.469 8.9336,-34.531 0,-50 -8.9297,-15.469 -25.438,-25 -43.301,-25 h -250 c -66.281,0.0781 -129.82,26.445 -176.69,73.312 -46.87,46.867 -73.234,110.41 -73.312,176.69 v 400 c 0.07813,66.281 26.445,129.82 73.312,176.69 46.867,46.87 110.41,73.234 176.69,73.312 h 400 c 66.281,-0.078 129.82,-26.445 176.69,-73.312 46.87,-46.867 73.234,-110.41 73.312,-176.69 v -250 c 0,-13.262 -5.2695,-25.98 -14.645,-35.355 -9.3755,-9.375 -22.094,-14.645 -35.355,-14.645 z"
           style="fill:#63285a;fill-opacity:1" />
      </g>
      <text
         xml:space="preserve"
         style="font-size:453.056px;line-height:1.25;font-family:'Alien Encounters';-inkscape-font-specification:'Alien Encounters';text-align:center;text-anchor:middle;fill:#63285a;fill-opacity:1;stroke-width:11.3264"
         x="2248.0107"
         y="341.67923"
         id="text923"><tspan
           sodipodi:role="line"
           id="tspan921"
           x="2248.0107"
           y="341.67923"
           style="font-style:normal;font-variant:normal;font-weight:normal;font-stretch:normal;font-family:'Berlin Sans FB';-inkscape-font-specification:'Berlin Sans FB';fill:#63285a;fill-opacity:1;stroke-width:11.3264">Tuesday 08</tspan></text>
      <text
         id="text927"
         y="1724.361"
         x="2252.8633"
         style="font-size:1778.12px;line-height:1.25;font-family:'Alien Encounters';-inkscape-font-specification:'Alien Encounters';text-align:center;text-anchor:middle;fill:#63285a;fill-opacity:1;stroke-width:44.4531"
         xml:space="preserve"><tspan
           style="font-style:normal;font-variant:normal;font-weight:normal;font-stretch:normal;font-family:'Berlin Sans FB';-inkscape-font-specification:'Berlin Sans FB';fill:#63285a;fill-opacity:1;stroke-width:44.4531"
           y="1724.361"
           x="2252.8633"
           id="tspan925"
           sodipodi:role="line">18:54</tspan></text>
      <text
         xml:space="preserve"
         style="font-size:126.53px;line-height:1.25;font-family:'Alien Encounters';-inkscape-font-specification:'Alien Encounters';text-align:center;text-anchor:middle;fill:#63285a;fill-opacity:1;stroke-width:3.16324"
         x="2244.9214"
         y="2540.2339"
         id="text931"><tspan
           sodipodi:role="line"
           id="tspan929"
           x="2244.9214"
           y="2540.2339"
           style="font-style:normal;font-variant:normal;font-weight:normal;font-stretch:normal;font-family:'Berlin Sans FB';-inkscape-font-specification:'Berlin Sans FB';fill:#63285a;fill-opacity:1;stroke-width:3.16324">By Oz Locke</tspan></text>
    </g>
    <text
       id="text937"
       y="-671.81274"
       x="-3754.7456"
       style="font-size:428.725px;line-height:1.25;font-family:'Alien Encounters';-inkscape-font-specification:'Alien Encounters';text-align:center;text-anchor:middle;stroke-width:10.7181"
       xml:space="preserve"><tspan
         style="font-style:normal;font-variant:normal;font-weight:normal;font-stretch:normal;font-family:Arial;-inkscape-font-specification:Arial;stroke-width:10.7181"
         y="-671.81274"
         x="-3754.7456"
         id="tspan935"
         sodipodi:role="line">Bubblegum</tspan></text>
    <text
       id="text864"
       y="2565.7961"
       x="3828.4558"
       style="font-size:108.263px;line-height:1.25;font-family:'Alien Encounters';-inkscape-font-specification:'Alien Encounters';text-align:center;text-anchor:middle;opacity:0.5;fill:#ffffff;fill-opacity:1;stroke-width:2.70657"
       xml:space="preserve"><tspan
         style="font-style:normal;font-variant:normal;font-weight:bold;font-stretch:normal;font-family:Arial;-inkscape-font-specification:'Arial Bold';fill:#ffffff;fill-opacity:1;stroke-width:2.70657"
         y="2565.7961"
         x="3828.4558"
         id="tspan862"
         sodipodi:role="line">© Locke Creatives 2022</tspan></text>
    <text
       transform="translate(2570.2579,-84.377739)"
       xml:space="preserve"
       style="font-style:normal;font-variant:normal;font-weight:bold;font-stretch:normal;font-size:108.263px;line-height:1.25;font-family:Arial;-inkscape-font-specification:'Arial Bold';font-variant-ligatures:normal;font-variant-position:normal;font-variant-caps:normal;font-variant-numeric:normal;font-variant-alternates:normal;font-variant-east-asian:normal;font-feature-settings:normal;font-variation-settings:normal;text-indent:0;text-align:center;text-decoration:none;text-decoration-line:none;text-decoration-style:solid;text-decoration-color:#000000;letter-spacing:normal;word-spacing:normal;text-transform:none;writing-mode:lr-tb;direction:ltr;text-orientation:mixed;dominant-baseline:auto;baseline-shift:baseline;text-anchor:middle;white-space:normal;shape-padding:0;shape-margin:0;inline-size:0;opacity:0.5;vector-effect:none;fill:#ffffff;fill-opacity:1;stroke-width:2.70657;stroke-linecap:butt;stroke-linejoin:miter;stroke-miterlimit:4;stroke-dasharray:none;stroke-dashoffset:0;stroke-opacity:1;stop-color:#000000"
       x="1491.4286"
       y="2524.5715"
       id="text874"><tspan
         sodipodi:role="line"
         id="tspan872"
         x="1491.4286"
         y="2524.5715">Windows 1.0.0</tspan></text>
  </g>
</svg>
